<?xml version="1.0" ?><!DOCTYPE svg  PUBLIC '-//W3C//DTD SVG 1.1//EN'  'http://www.w3.org/Graphics/SVG/1.1/DTD/svg11.dtd'><svg enable-background="new 0 0 128 128" id="Слой_1" version="1.1" viewBox="0 0 128 128" xml:space="preserve" xmlns="http://www.w3.org/2000/svg" xmlns:xlink="http://www.w3.org/1999/xlink"><circle cx="94.5" cy="94" fill="#C6E8EE" r="30"/><path d="M93.5,112.5c-9.6,0-17.5-7.9-17.5-17.5s7.9-17.5,17.5-17.5S111,85.4,111,95S103.1,112.5,93.5,112.5z" fill="#E5E3E3"/><circle cx="49.5" cy="79" fill="#F7F9E2" r="45"/><circle cx="49.5" cy="79" fill="#F2B1AF" r="45"/><path d="M49.5,109c-16.5,0-30-13.5-30-30s13.5-30,30-30s30,13.5,30,30S66,109,49.5,109z" fill="#E5E3E3"/><path d="M98.6,61.8c0.6,1.8,1.1,3.5,1.5,5.4C112.4,70,121.5,81,121.5,94c0,15.2-12.3,27.5-27.5,27.5  c-4,0-7.8-0.9-11.2-2.4c-1.4,1.2-2.9,2.3-4.4,3.4c4.6,2.6,10,4,15.6,4c17.9,0,32.5-14.6,32.5-32.5C126.5,77.6,114.4,64.1,98.6,61.8z  " fill="#62355C"/><path d="M101.4,76.9c0,0.7,0.1,1.4,0.1,2.1c0,1.2-0.1,2.4-0.1,3.6c4,2.7,6.6,7.3,6.6,12.4c0,8.3-6.7,15-15,15  c-0.5,0-1.1,0-1.6-0.1c-1.1,1.5-2.3,3-3.6,4.4c1.7,0.4,3.4,0.7,5.2,0.7c11,0,20-9,20-20C113,87,108.3,80.1,101.4,76.9z" fill="#62355C"/><path d="M49,126.5c-26.2,0-47.5-21.3-47.5-47.5S22.8,31.5,49,31.5S96.5,52.8,96.5,79S75.2,126.5,49,126.5z M49,36.5  C25.6,36.5,6.5,55.6,6.5,79s19.1,42.5,42.5,42.5S91.5,102.4,91.5,79S72.4,36.5,49,36.5z" fill="#62355C"/><path d="M49,111.5c-17.9,0-32.5-14.6-32.5-32.5S31.1,46.5,49,46.5S81.5,61.1,81.5,79S66.9,111.5,49,111.5z M49,51.5  c-15.2,0-27.5,12.3-27.5,27.5s12.3,27.5,27.5,27.5S76.5,94.2,76.5,79S64.2,51.5,49,51.5z" fill="#62355C"/></svg>